<svg width="85" height="28" viewBox="0 0 85 28" fill="none" xmlns="http://www.w3.org/2000/svg">
<path d="M6.39382 3.48676C6.41204 3.85467 6.3552 4.22244 6.22675 4.56768C6.0983 4.91292 5.90093 5.22841 5.64666 5.49493C5.36169 5.79047 5.01755 6.02252 4.63673 6.17589C4.25591 6.32927 3.847 6.40051 3.43675 6.38497C3.02388 6.38867 2.61444 6.3098 2.23249 6.15299C1.85055 5.99619 1.5038 5.76462 1.21262 5.47188C0.921453 5.17915 0.69174 4.83117 0.536979 4.44839C0.382217 4.06561 0.305534 3.65576 0.311437 3.24292C0.305581 2.83006 0.382291 2.4202 0.537063 2.03742C0.691834 1.65463 0.921542 1.30663 1.2127 1.01387C1.50385 0.72111 1.85058 0.489487 2.23251 0.332612C2.61444 0.175736 3.02387 0.0967713 3.43675 0.100356C3.86125 0.099073 4.28149 0.184897 4.67149 0.352519C5.03371 0.499346 5.35612 0.729654 5.61247 1.02469L5.08368 1.55388C4.88217 1.3167 4.62887 1.129 4.34332 1.00524C4.05777 0.881481 3.7476 0.824982 3.43675 0.8401C3.12385 0.838482 2.81384 0.90003 2.52528 1.02106C2.23673 1.14209 1.97557 1.32011 1.75744 1.54446C1.53932 1.76881 1.36872 2.03487 1.25586 2.32672C1.14299 2.61856 1.09019 2.93018 1.10061 3.24292C1.09315 3.71134 1.22496 4.17144 1.47933 4.56485C1.7337 4.95827 2.09917 5.26729 2.52939 5.45273C2.95961 5.63816 3.43521 5.69167 3.89588 5.60645C4.35656 5.52123 4.78155 5.30113 5.11697 4.97406C5.42567 4.64143 5.60461 4.20897 5.62119 3.75546H3.43675V3.03286H6.35171C6.37927 3.1826 6.39336 3.3345 6.39382 3.48676Z" fill="white"/>
<path d="M11.0153 0.974253H8.27567V2.88157H10.7461V3.60426H8.27567V5.51158H11.0153V6.25082H7.50314V0.23501H11.0153V0.974253Z" fill="white"/>
<path d="M14.2748 6.25082H13.5013V0.974253H11.8211V0.23501H15.955V0.974253H14.2748V6.25082Z" fill="white"/>
<path d="M18.9463 6.25082V0.23501H19.7188V6.25082H18.9463Z" fill="white"/>
<path d="M23.1478 6.25082H22.3742V0.974253H20.6941V0.23501H24.828V0.974253H23.1478V6.25082Z" fill="white"/>
<path d="M32.6537 5.47338C32.0682 6.05716 31.2751 6.38497 30.4482 6.38497C29.6214 6.38497 28.8283 6.05716 28.2427 5.47338C27.9531 5.17998 27.7254 4.83133 27.5731 4.44815C27.4209 4.06498 27.3473 3.65511 27.3566 3.24291C27.3473 2.83072 27.4209 2.42085 27.5731 2.03767C27.7254 1.6545 27.9531 1.30585 28.2427 1.01245C28.5322 0.722958 28.8758 0.493386 29.2541 0.336877C29.6323 0.180367 30.0377 0.0999937 30.4471 0.100357C30.8565 0.10072 31.2617 0.181813 31.6397 0.338994C32.0177 0.496174 32.3609 0.726356 32.6498 1.01636C32.9397 1.30899 33.1679 1.65686 33.3208 2.03933C33.4736 2.42181 33.5482 2.8311 33.5399 3.24291C33.549 3.65508 33.4752 4.06488 33.323 4.44801C33.1708 4.83115 32.9432 5.17983 32.6537 5.47338ZM28.8135 4.96965C29.2472 5.40258 29.835 5.64574 30.4477 5.64574C31.0605 5.64574 31.6483 5.40258 32.0819 4.96965C32.3043 4.74197 32.4782 4.47157 32.5932 4.17479C32.7081 3.878 32.7617 3.56099 32.7507 3.24291C32.7617 2.92484 32.7081 2.60783 32.5932 2.31104C32.4782 2.01426 32.3043 1.74386 32.0819 1.51618C31.6483 1.08324 31.0605 0.840089 30.4477 0.840089C29.835 0.840089 29.2472 1.08324 28.8135 1.51618C28.5915 1.74404 28.4178 2.01449 28.3031 2.31125C28.1883 2.60801 28.1348 2.92493 28.1458 3.24291C28.1348 3.5609 28.1883 3.87782 28.3031 4.17458C28.4178 4.47134 28.5915 4.74179 28.8135 4.96965Z" fill="white"/>
<path d="M34.6247 6.25082V0.23501H35.5657L38.4894 4.91481H38.5227L38.4894 3.75546V0.23501H39.2629V6.25082H38.4561L35.3972 1.34432H35.364L35.3972 2.50367V6.25082H34.6247Z" fill="white"/>
<path d="M6.39382 3.48676C6.41204 3.85467 6.3552 4.22244 6.22675 4.56768C6.0983 4.91292 5.90093 5.22841 5.64666 5.49493C5.36169 5.79047 5.01755 6.02252 4.63673 6.17589C4.25591 6.32927 3.847 6.40051 3.43675 6.38497C3.02388 6.38867 2.61444 6.3098 2.23249 6.15299C1.85055 5.99619 1.5038 5.76462 1.21262 5.47188C0.921453 5.17915 0.69174 4.83117 0.536979 4.44839C0.382217 4.06561 0.305534 3.65576 0.311437 3.24292C0.305581 2.83006 0.382291 2.4202 0.537063 2.03742C0.691834 1.65463 0.921542 1.30663 1.2127 1.01387C1.50385 0.72111 1.85058 0.489487 2.23251 0.332612C2.61444 0.175736 3.02387 0.0967713 3.43675 0.100356C3.86125 0.099073 4.28149 0.184897 4.67149 0.352519C5.03371 0.499346 5.35612 0.729654 5.61247 1.02469L5.08368 1.55388C4.88217 1.3167 4.62887 1.129 4.34332 1.00524C4.05777 0.881481 3.7476 0.824982 3.43675 0.8401C3.12385 0.838482 2.81384 0.90003 2.52528 1.02106C2.23673 1.14209 1.97557 1.32011 1.75744 1.54446C1.53932 1.76881 1.36872 2.03487 1.25586 2.32672C1.14299 2.61856 1.09019 2.93018 1.10061 3.24292C1.09315 3.71134 1.22496 4.17144 1.47933 4.56485C1.7337 4.95827 2.09917 5.26729 2.52939 5.45273C2.95961 5.63816 3.43521 5.69167 3.89588 5.60645C4.35656 5.52123 4.78155 5.30113 5.11697 4.97406C5.42567 4.64143 5.60461 4.20897 5.62119 3.75546H3.43675V3.03286H6.35171C6.37927 3.1826 6.39336 3.3345 6.39382 3.48676Z" stroke="white" stroke-width="0.2" stroke-miterlimit="10"/>
<path d="M11.0153 0.974253H8.27567V2.88157H10.7461V3.60426H8.27567V5.51158H11.0153V6.25082H7.50314V0.23501H11.0153V0.974253Z" stroke="white" stroke-width="0.2" stroke-miterlimit="10"/>
<path d="M14.2748 6.25082H13.5013V0.974253H11.8211V0.23501H15.955V0.974253H14.2748V6.25082Z" stroke="white" stroke-width="0.2" stroke-miterlimit="10"/>
<path d="M18.9463 6.25082V0.23501H19.7188V6.25082H18.9463Z" stroke="white" stroke-width="0.2" stroke-miterlimit="10"/>
<path d="M23.1478 6.25082H22.3742V0.974253H20.6941V0.23501H24.828V0.974253H23.1478V6.25082Z" stroke="white" stroke-width="0.2" stroke-miterlimit="10"/>
<path d="M32.6537 5.47338C32.0682 6.05716 31.2751 6.38497 30.4482 6.38497C29.6214 6.38497 28.8283 6.05716 28.2427 5.47338C27.9531 5.17998 27.7254 4.83133 27.5731 4.44815C27.4209 4.06498 27.3473 3.65511 27.3566 3.24291C27.3473 2.83072 27.4209 2.42085 27.5731 2.03767C27.7254 1.6545 27.9531 1.30585 28.2427 1.01245C28.5322 0.722958 28.8758 0.493386 29.2541 0.336877C29.6323 0.180367 30.0377 0.0999937 30.4471 0.100357C30.8565 0.10072 31.2617 0.181813 31.6397 0.338994C32.0177 0.496174 32.3609 0.726356 32.6498 1.01636C32.9397 1.30899 33.1679 1.65686 33.3208 2.03933C33.4736 2.42181 33.5482 2.8311 33.5399 3.24291C33.549 3.65508 33.4752 4.06488 33.323 4.44801C33.1708 4.83115 32.9432 5.17983 32.6537 5.47338ZM28.8135 4.96965C29.2472 5.40258 29.835 5.64574 30.4477 5.64574C31.0605 5.64574 31.6483 5.40258 32.0819 4.96965C32.3043 4.74197 32.4782 4.47157 32.5932 4.17479C32.7081 3.878 32.7617 3.56099 32.7507 3.24291C32.7617 2.92484 32.7081 2.60783 32.5932 2.31104C32.4782 2.01426 32.3043 1.74386 32.0819 1.51618C31.6483 1.08324 31.0605 0.840089 30.4477 0.840089C29.835 0.840089 29.2472 1.08324 28.8135 1.51618C28.5915 1.74404 28.4178 2.01449 28.3031 2.31125C28.1883 2.60801 28.1348 2.92493 28.1458 3.24291C28.1348 3.5609 28.1883 3.87782 28.3031 4.17458C28.4178 4.47134 28.5915 4.74179 28.8135 4.96965Z" stroke="white" stroke-width="0.2" stroke-miterlimit="10"/>
<path d="M34.6247 6.25082V0.23501H35.5657L38.4894 4.91481H38.5227L38.4894 3.75546V0.23501H39.2629V6.25082H38.4561L35.3972 1.34432H35.364L35.3972 2.50367V6.25082H34.6247Z" stroke="white" stroke-width="0.2" stroke-miterlimit="10"/>
<path d="M27.1658 15.0255C26.323 15.0287 25.5002 15.2815 24.801 15.752C24.1019 16.2226 23.5578 16.8897 23.2375 17.6692C22.9172 18.4487 22.8351 19.3056 23.0015 20.1317C23.1678 20.9579 23.5753 21.7162 24.1723 22.311C24.7693 22.9057 25.5292 23.3103 26.356 23.4735C27.1827 23.6367 28.0393 23.5513 28.8176 23.2281C29.5959 22.9048 30.2609 22.3582 30.7288 21.6573C31.1966 20.9564 31.4463 20.1325 31.4463 19.2898C31.4546 18.7262 31.3494 18.1666 31.137 17.6444C30.9246 17.1222 30.6094 16.6481 30.21 16.2503C29.8106 15.8524 29.3353 15.5389 28.8123 15.3285C28.2893 15.1181 27.7294 15.0151 27.1658 15.0255ZM27.1658 21.8743C26.6468 21.9113 26.1287 21.7912 25.6789 21.5296C25.2291 21.2681 24.8685 20.8771 24.644 20.4077C24.4196 19.9383 24.3416 19.4122 24.4203 18.8979C24.499 18.3836 24.7307 17.9049 25.0853 17.5241C25.4399 17.1434 25.9009 16.8782 26.4083 16.7631C26.9157 16.648 27.4461 16.6883 27.9302 16.8788C28.4144 17.0693 28.83 17.4012 29.1229 17.8312C29.4158 18.2613 29.5725 18.7695 29.5725 19.2898C29.5882 19.6185 29.5381 19.9471 29.4249 20.2561C29.3118 20.5651 29.138 20.8484 28.9137 21.0892C28.6894 21.33 28.4193 21.5235 28.1191 21.6584C27.8189 21.7932 27.4948 21.8666 27.1658 21.8743ZM17.8278 15.0255C16.9851 15.0287 16.1622 15.2815 15.463 15.752C14.7639 16.2225 14.2198 16.8896 13.8995 17.6691C13.5792 18.4486 13.497 19.3055 13.6634 20.1317C13.8298 20.9578 14.2372 21.7162 14.8342 22.3109C15.4312 22.9057 16.1911 23.3103 17.0179 23.4735C17.8446 23.6367 18.7013 23.5513 19.4795 23.2281C20.2578 22.9049 20.9229 22.3583 21.3907 21.6573C21.8586 20.9564 22.1083 20.1326 22.1083 19.2898C22.1165 18.7262 22.0114 18.1666 21.799 17.6444C21.5866 17.1223 21.2713 16.6481 20.872 16.2503C20.4726 15.8524 19.9973 15.539 19.4744 15.3286C18.9514 15.1182 18.3914 15.0151 17.8278 15.0255ZM17.8278 21.8743C17.3088 21.9113 16.7907 21.7912 16.3409 21.5296C15.8912 21.2681 15.5306 20.8771 15.3061 20.4077C15.0816 19.9383 15.0037 19.4122 15.0824 18.8979C15.1611 18.3836 15.3928 17.9049 15.7474 17.5241C16.102 17.1434 16.563 16.8782 17.0704 16.7631C17.5778 16.648 18.1081 16.6883 18.5923 16.8788C19.0765 17.0693 19.492 17.4012 19.785 17.8312C20.0779 18.2613 20.2345 18.7695 20.2345 19.2898C20.2503 19.6185 20.2001 19.9471 20.087 20.2561C19.9739 20.5651 19.8001 20.8484 19.5758 21.0892C19.3515 21.33 19.0813 21.5236 18.7811 21.6584C18.4809 21.7932 18.1568 21.8666 17.8278 21.8743ZM6.71982 16.3339V18.143H11.0489C10.9864 18.9915 10.6392 19.7941 10.0635 20.4206C9.62969 20.8628 9.10799 21.2091 8.53206 21.4372C7.95613 21.6654 7.33878 21.7702 6.71982 21.7451C5.45448 21.7279 4.24677 21.2133 3.35803 20.3124C2.46929 19.4116 1.971 18.197 1.971 16.9315C1.971 15.6661 2.46929 14.4515 3.35803 13.5506C4.24677 12.6498 5.45448 12.1351 6.71982 12.118C7.93523 12.1021 9.10781 12.5664 9.9828 13.4102L11.2589 12.1341C10.6618 11.5431 9.95284 11.0772 9.17341 10.7637C8.39398 10.4503 7.55981 10.2956 6.71982 10.3088C5.842 10.296 4.97041 10.4579 4.1557 10.785C3.341 11.1121 2.59944 11.5979 1.97416 12.2141C1.34888 12.8303 0.852354 13.5647 0.513442 14.3746C0.17453 15.1845 0 16.0536 0 16.9315C0 17.8094 0.17453 18.6786 0.513442 19.4884C0.852354 20.2983 1.34888 21.0327 1.97416 21.6489C2.59944 22.2652 3.341 22.751 4.1557 23.0781C4.97041 23.4051 5.842 23.567 6.71982 23.5542C7.57754 23.5898 8.43301 23.4426 9.22949 23.1223C10.026 22.802 10.7452 22.3161 11.3396 21.6966C12.3947 20.5449 12.9572 19.0258 12.9065 17.4646C12.9106 17.0855 12.8781 16.7068 12.8094 16.3339H6.71982ZM52.1475 17.7391C51.8912 16.9667 51.4034 16.292 50.7503 15.8065C50.0971 15.321 49.3104 15.0483 48.4969 15.0255C47.949 15.0289 47.4075 15.1434 46.9051 15.362C46.4027 15.5806 45.9498 15.8988 45.5739 16.2974C45.1979 16.696 44.9067 17.1667 44.7178 17.681C44.5289 18.1954 44.4463 18.7427 44.4749 19.2898C44.4626 19.8505 44.5634 20.4079 44.7713 20.9287C44.9792 21.4495 45.2899 21.9231 45.6849 22.3212C46.08 22.7192 46.5512 23.0335 47.0704 23.2454C47.5896 23.4573 48.1462 23.5623 48.707 23.5542C49.4095 23.5581 50.1019 23.3875 50.7222 23.0576C51.3424 22.7277 51.871 22.249 52.2605 21.6644L50.8068 20.6952C50.589 21.0569 50.2809 21.3557 49.9128 21.5625C49.5447 21.7692 49.1292 21.8766 48.707 21.8743C48.2725 21.8909 47.8431 21.7766 47.4744 21.5462C47.1057 21.3158 46.8148 20.9799 46.6393 20.5821L52.3414 18.2238L52.1475 17.7391ZM46.3325 19.1607C46.3124 18.8503 46.3545 18.539 46.4561 18.2451C46.5578 17.9512 46.7171 17.6805 46.9246 17.4488C47.1322 17.2172 47.3839 17.0293 47.6649 16.8961C47.946 16.7629 48.2508 16.6871 48.5615 16.6731C48.885 16.6519 49.2077 16.7263 49.4892 16.8871C49.7707 17.048 49.9986 17.2882 50.1445 17.5777L46.3325 19.1607ZM41.6966 23.2957H43.5703V10.7612H41.6966V23.2957ZM38.6275 15.9785H38.5629C38.278 15.669 37.9304 15.4239 37.5432 15.2595C37.156 15.0952 36.7381 15.0154 36.3176 15.0255C35.218 15.0723 34.179 15.542 33.4175 16.3366C32.656 17.1312 32.2309 18.1893 32.2309 19.2899C32.2309 20.3904 32.656 21.4485 33.4175 22.2431C34.179 23.0377 35.218 23.5074 36.3176 23.5542C36.7398 23.5655 37.1594 23.4846 37.5471 23.3172C37.9349 23.1498 38.2815 22.9 38.5629 22.5851H38.6275V23.1989C38.6275 24.8304 37.7553 25.7026 36.3499 25.7026C35.8815 25.6914 35.4271 25.541 35.0445 25.2706C34.6619 25.0001 34.3685 24.622 34.2016 24.1842L32.5702 24.8627C32.8777 25.6113 33.4017 26.2511 34.0751 26.7C34.7485 27.1489 35.5406 27.3866 36.3499 27.3825C38.5468 27.3825 40.4044 26.0903 40.4044 22.9404V15.2839H38.6275V15.9785ZM36.4792 21.8743C35.8316 21.8194 35.2282 21.5233 34.7884 21.0447C34.3487 20.5661 34.1047 19.9398 34.1047 19.2899C34.1047 18.6399 34.3487 18.0136 34.7884 17.535C35.2282 17.0564 35.8316 16.7603 36.4792 16.7054C36.8014 16.7212 37.1172 16.8016 37.4076 16.942C37.6981 17.0823 37.9573 17.2797 38.1698 17.5224C38.3824 17.7651 38.5439 18.0481 38.6447 18.3545C38.7455 18.6609 38.7836 18.9845 38.7567 19.306C38.7819 19.6254 38.7424 19.9467 38.6406 20.2506C38.5387 20.5544 38.3767 20.8346 38.1641 21.0744C37.9514 21.3141 37.6926 21.5086 37.4032 21.646C37.1137 21.7835 36.7994 21.8611 36.4792 21.8743ZM60.9245 10.7614H56.4415V23.2957H58.3121V18.5469H60.9245C61.4536 18.5759 61.9831 18.4967 62.4806 18.3142C62.9782 18.1316 63.4332 17.8496 63.8181 17.4853C64.2029 17.121 64.5095 16.682 64.7189 16.1952C64.9284 15.7084 65.0365 15.1841 65.0365 14.6541C65.0365 14.1242 64.9284 13.5998 64.7189 13.113C64.5095 12.6263 64.2029 12.1873 63.8181 11.823C63.4332 11.4587 62.9782 11.1766 62.4806 10.9941C61.9831 10.8116 61.4536 10.7324 60.9245 10.7614ZM60.9728 16.8025H58.3121V12.5059H60.9728C61.2587 12.5 61.5428 12.5512 61.8087 12.6565C62.0745 12.7618 62.3166 12.919 62.5209 13.1191C62.7252 13.3192 62.8874 13.558 62.9982 13.8216C63.109 14.0852 63.1661 14.3683 63.1661 14.6542C63.1661 14.9401 63.109 15.2232 62.9982 15.4867C62.8874 15.7503 62.7252 15.9892 62.5209 16.1892C62.3166 16.3893 62.0745 16.5466 61.8087 16.6519C61.5428 16.7572 61.2587 16.8084 60.9728 16.8025ZM72.5349 15.0024C71.8521 14.9626 71.1725 15.1229 70.5795 15.4638C69.9865 15.8047 69.506 16.3113 69.1968 16.9214L70.8578 17.6148C71.0225 17.312 71.2719 17.0638 71.5755 16.9005C71.879 16.7372 72.2236 16.666 72.5671 16.6956C73.0417 16.6493 73.5152 16.793 73.884 17.0953C74.2528 17.3975 74.4867 17.8337 74.5344 18.3081V18.4372C73.9337 18.118 73.2635 17.9518 72.5832 17.9534C70.7933 17.9534 68.9711 18.9371 68.9711 20.7754C68.9885 21.1628 69.0836 21.5428 69.2506 21.8928C69.4176 22.2428 69.6533 22.5557 69.9436 22.8129C70.2338 23.0701 70.5728 23.2663 70.9404 23.39C71.3079 23.5137 71.6966 23.5623 72.0833 23.5329C72.5544 23.5606 73.0242 23.4615 73.444 23.246C73.8637 23.0304 74.218 22.7063 74.47 22.3073H74.5344V23.2749H76.3405V18.4695C76.3405 16.2441 74.6795 15.0024 72.5349 15.0024ZM72.3091 21.8719C71.6963 21.8719 70.8416 21.5656 70.8416 20.8076C70.8416 19.8402 71.9059 19.4692 72.8252 19.4692C73.4222 19.4533 74.0125 19.5981 74.5344 19.8885C74.4657 20.4322 74.2025 20.9326 73.7934 21.2972C73.3843 21.6618 72.8571 21.8659 72.3091 21.8719ZM82.9198 15.2766L80.7751 20.7108H80.7105L78.4852 15.2766H76.4695L79.8075 22.8717L77.9047 27.0966H79.8558L85 15.2766H82.9198ZM66.0685 23.2957H67.939V10.7614H66.0685V23.2957Z" fill="white"/>
</svg>
