<svg width="45" height="45" viewBox="0 0 45 45" fill="none" xmlns="http://www.w3.org/2000/svg">
<path d="M29.4562 23.8313C31.2944 22.385 32.6362 20.4018 33.2948 18.1574C33.9533 15.9131 33.896 13.5193 33.1308 11.3091C32.3655 9.09881 30.9304 7.18204 29.0251 5.82541C27.1197 4.46877 24.8389 3.73975 22.4999 3.73975C20.161 3.73975 17.8801 4.46877 15.9748 5.82541C14.0695 7.18204 12.6343 9.09881 11.8691 11.3091C11.1038 13.5193 11.0465 15.9131 11.7051 18.1574C12.3637 20.4018 13.7054 22.385 15.5437 23.8313C12.3938 25.0933 9.64547 27.1863 7.59161 29.8874C5.53774 32.5885 4.25536 35.7962 3.88118 39.1688C3.8541 39.415 3.87578 39.6642 3.94498 39.902C4.01418 40.1399 4.12956 40.3618 4.28452 40.555C4.59747 40.9453 5.05265 41.1953 5.54993 41.25C6.04721 41.3047 6.54586 41.1597 6.93617 40.8467C7.32648 40.5338 7.57648 40.0786 7.63118 39.5813C8.0429 35.916 9.7906 32.5309 12.5403 30.0728C15.2901 27.6146 18.8491 26.2557 22.5374 26.2557C26.2258 26.2557 29.7848 27.6146 32.5345 30.0728C35.2843 32.5309 37.032 35.916 37.4437 39.5813C37.4947 40.042 37.7145 40.4675 38.0608 40.7757C38.407 41.0839 38.8552 41.2529 39.3187 41.25H39.5249C40.0164 41.1935 40.4657 40.945 40.7747 40.5586C41.0838 40.1723 41.2276 39.6795 41.1749 39.1875C40.799 35.8054 39.5097 32.5894 37.4453 29.8842C35.3809 27.179 32.6191 25.0866 29.4562 23.8313ZM22.4999 22.5001C21.0166 22.5001 19.5665 22.0602 18.3332 21.2361C17.0998 20.412 16.1385 19.2406 15.5708 17.8702C15.0032 16.4997 14.8547 14.9917 15.144 13.5369C15.4334 12.082 16.1477 10.7456 17.1966 9.69675C18.2455 8.64786 19.5819 7.93355 21.0368 7.64416C22.4916 7.35477 23.9996 7.5033 25.3701 8.07095C26.7405 8.63861 27.9118 9.59991 28.736 10.8333C29.5601 12.0666 29.9999 13.5167 29.9999 15.0001C29.9999 16.9892 29.2098 18.8968 27.8032 20.3034C26.3967 21.7099 24.4891 22.5001 22.4999 22.5001Z" fill="black"/>
</svg>
